<?xml version="1.0" encoding="utf-8"?>
<!-- Generator: Adobe Illustrator 27.5.0, SVG Export Plug-In . SVG Version: 6.00 Build 0)  -->
<svg version="1.1" xmlns="http://www.w3.org/2000/svg" xmlns:xlink="http://www.w3.org/1999/xlink" x="0px" y="0px"
	 viewBox="0 0 500 500" style="enable-background:new 0 0 500 500;" xml:space="preserve">
<g id="BACKGROUND">
	<rect style="fill:#FF8155;" width="500" height="500"/>
</g>
<g id="OBJECTS">
	<g>
		<polygon style="opacity:0.44;fill:#B5B5B5;" points="361.41,216.328 357.642,215.72 270.249,204.116 265.762,232.721 
			261.794,225.575 181.213,269.871 225.815,350.207 306.395,305.911 303.116,300.003 347.169,307.104 		"/>
		<g>
			<g>
				<polygon style="fill:#FFFFFF;" points="342.257,301.191 251.475,286.559 265.716,195.783 356.498,210.415 				"/>
				<g>
					<defs>
						<polygon id="SVGID_1_" points="338.338,280.132 261.646,267.771 271.49,205.02 348.182,217.381 						"/>
					</defs>
					<clipPath id="SVGID_00000065759123404494664810000008056852921868497044_">
						<use xlink:href="#SVGID_1_"  style="overflow:visible;"/>
					</clipPath>
					<g style="clip-path:url(#SVGID_00000065759123404494664810000008056852921868497044_);">
						
							<linearGradient id="SVGID_00000151520243228853090750000000667515910334482586_" gradientUnits="userSpaceOnUse" x1="333.3333" y1="252.1491" x2="333.3333" y2="188.7791" gradientTransform="matrix(0.989 0.148 -0.148 0.989 8.7263 -41.5236)">
							<stop  offset="0" style="stop-color:#EFAD7E"/>
							<stop  offset="0.0634" style="stop-color:#EFC3A2"/>
							<stop  offset="0.1299" style="stop-color:#F0D5C1"/>
							<stop  offset="0.195" style="stop-color:#F0E2D7"/>
							<stop  offset="0.2572" style="stop-color:#F0EAE4"/>
							<stop  offset="0.3136" style="stop-color:#F0EDE9"/>
							<stop  offset="0.4181" style="stop-color:#E3DFE9"/>
							<stop  offset="0.6118" style="stop-color:#C1BBE8"/>
							<stop  offset="0.7999" style="stop-color:#A6BBE9"/>
							<stop  offset="0.905" style="stop-color:#A6AEE9"/>
							<stop  offset="1" style="stop-color:#A6A9E9"/>
						</linearGradient>
						<polygon style="fill:url(#SVGID_00000151520243228853090750000000667515910334482586_);" points="344.664,263.708 
							257.486,250.662 266.865,187.989 354.043,201.036 						"/>
						<g>
							<polygon style="fill:#C1BBE8;" points="280.257,225.576 310.287,247.249 276.444,246.761 274.632,240.239 							"/>
							<polygon style="fill:#7F99CA;" points="271.519,228.33 280.257,225.576 279.997,232.965 286.768,249.817 249.288,243.793 
								249.06,229.473 							"/>
						</g>
						<g>
							<polygon style="fill:#C1BBE8;" points="335.815,238.48 363.919,259.804 335.204,260.035 331.889,248.717 							"/>
							<polygon style="fill:#7F99CA;" points="329.715,240.402 335.815,238.48 335.634,243.639 340.361,255.404 314.195,251.198 
								314.036,241.201 							"/>
						</g>
						<g>
							<polygon style="fill:#C1BBE8;" points="310.573,237.404 354.988,263.771 350.102,277.879 302.81,255.963 303.092,254.083 
															"/>
							<polygon style="fill:#7F99CA;" points="272.698,247.588 310.573,237.404 310.195,248.143 321.591,262.778 263.029,250.104 
															"/>
						</g>
						<polygon style="fill:#ECECFD;" points="255.384,225.423 281.32,250.973 333.941,265.204 353.612,275.66 351.392,290.496 
							249.375,275.229 						"/>
					</g>
				</g>
			</g>
			<g>
				<g>
					<polygon style="fill:#FFFFFF;" points="301.483,299.998 220.902,344.294 176.301,263.958 256.881,219.662 					"/>
					<g>
						
							<linearGradient id="SVGID_00000172415159383453100130000017139256339632059546_" gradientUnits="userSpaceOnUse" x1="229.4941" y1="329.4898" x2="229.4941" y2="239.7745" gradientTransform="matrix(0.9969 -0.0791 0.0791 0.9969 -15.3098 11.15)">
							<stop  offset="0.3768" style="stop-color:#FCB283"/>
							<stop  offset="0.8208" style="stop-color:#FC9A83"/>
						</linearGradient>
						<polygon style="fill:url(#SVGID_00000172415159383453100130000017139256339632059546_);" points="285.44,285.803 
							217.366,323.224 186.534,267.691 254.609,230.269 						"/>
						<path style="fill:#FFC545;" d="M249.649,272.4c4.109,7.401,1.392,16.726-6.069,20.827c-7.461,4.101-16.84,1.426-20.949-5.975
							c-4.109-7.401-1.392-16.726,6.069-20.827C236.161,262.324,245.54,264.999,249.649,272.4z"/>
						<polygon style="fill:#50B4BE;" points="280.45,276.814 212.375,314.236 204.206,299.521 272.28,262.1 						"/>
						<polygon style="fill:#F8E1D5;" points="285.442,285.806 217.367,323.227 212.378,314.24 280.452,276.818 						"/>
						<polygon style="opacity:0.44;fill:#FFFFFF;" points="280.571,277.032 212.496,314.453 210.167,310.258 278.242,272.836 						
							"/>
						<polygon style="opacity:0.44;fill:#FFFFFF;" points="278.551,273.393 210.476,310.815 208.997,308.15 277.071,270.729 						
							"/>
					</g>
				</g>
			</g>
		</g>
	</g>
	<g>
		<path style="opacity:0.44;fill:#B5B5B5;" d="M449.603,353.236l-28.206-8.272c0.153-0.453,0.281-0.896,0.385-1.332
			c1.454-6.092,0.448-12.386-2.831-17.723c-3.28-5.336-8.442-9.075-14.535-10.529c-6.093-1.453-12.387-0.447-17.723,2.831
			c-5.336,3.279-9.075,8.441-10.529,14.533c-0.296,1.238-0.432,2.635-0.407,4.203l-17.53-5.188
			c-0.295-0.088-0.595-0.147-0.896-0.179l-29.663-3.423c-2.582-0.297-4.956,1.428-5.473,3.971l-6.633,32.64
			c-0.097,0.254-0.174,0.518-0.228,0.788L305.2,415.415c-0.056,0.27-0.087,0.542-0.098,0.813l-0.47,2.313
			c-0.275,1.355,0.023,2.765,0.825,3.893c0.802,1.128,2.035,1.873,3.406,2.058l33.284,4.491l32.415,11.12
			c0.477,0.238,0.999,0.402,1.556,0.479l34.652,4.729l35.17,11.939c0.524,0.179,1.067,0.266,1.607,0.266
			c1.025,0,2.041-0.315,2.898-0.926c1.309-0.931,2.091-2.434,2.102-4.04l0.646-94.479
			C453.211,355.836,451.744,353.864,449.603,353.236z M397.488,336.313c0-0.001,0-0.001,0-0.002
			c0.206-0.861,0.978-1.443,1.828-1.443c0.143,0,0.289,0.017,0.435,0.052c1.009,0.24,1.633,1.257,1.392,2.265
			c-0.157,0.658-0.597,1.012-0.844,1.164c-0.247,0.153-0.757,0.387-1.421,0.227c-0.658-0.157-1.012-0.597-1.164-0.844
			C397.563,337.484,397.331,336.972,397.488,336.313z"/>
		<path style="fill:#FFFFFF;" d="M443.926,345.668l-28.206-8.272c0.153-0.453,0.281-0.897,0.385-1.332
			c1.454-6.092,0.448-12.386-2.831-17.723c-3.28-5.336-8.442-9.075-14.535-10.529c-6.093-1.453-12.387-0.447-17.723,2.831
			c-5.336,3.279-9.075,8.441-10.529,14.533c-0.296,1.238-0.432,2.635-0.407,4.203l-17.53-5.189
			c-0.295-0.088-0.595-0.147-0.896-0.179l-29.663-3.423c-2.582-0.297-4.956,1.428-5.473,3.971l-6.633,32.64
			c-0.097,0.254-0.174,0.518-0.229,0.788l-10.132,49.859c-0.056,0.27-0.087,0.542-0.098,0.813l-0.47,2.313
			c-0.275,1.355,0.023,2.765,0.825,3.893c0.802,1.128,2.035,1.873,3.406,2.058l33.284,4.491l32.415,11.12
			c0.477,0.238,0.999,0.402,1.556,0.478l34.652,4.729l35.17,11.939c0.524,0.179,1.067,0.266,1.607,0.266
			c1.025,0,2.041-0.315,2.898-0.926c1.309-0.931,2.091-2.434,2.102-4.04l0.647-94.479
			C447.535,348.268,446.068,346.296,443.926,345.668z M391.812,328.745c0-0.001,0-0.001,0-0.002
			c0.206-0.861,0.978-1.443,1.828-1.443c0.144,0,0.289,0.017,0.435,0.052c1.009,0.24,1.633,1.257,1.393,2.265
			c-0.157,0.658-0.597,1.012-0.844,1.164c-0.247,0.153-0.757,0.387-1.421,0.228c-0.658-0.157-1.012-0.597-1.164-0.844
			C391.886,329.916,391.655,329.403,391.812,328.745z"/>
		<g>
			<g>
				<polygon style="fill:#F8E1D5;" points="337.626,416.523 303.857,411.967 321.417,325.556 351.129,328.984 				"/>
				<polygon style="fill:#F4CFBE;" points="337.628,416.524 371.181,428.034 380.679,337.731 351.13,328.985 				"/>
				<polygon style="fill:#F8E1D5;" points="406.249,432.852 371.119,428.058 380.625,337.75 411.383,341.335 				"/>
				<polygon style="fill:#F4CFBE;" points="406.25,432.852 441.873,444.945 442.52,350.466 411.385,341.335 				"/>
			</g>
			<path style="fill:none;" d="M372.083,358.821c-1.393,4.293,1.069,9.208,4.945,11.521s8.775,2.362,13.118,1.136
				c2.542-0.718,5.262-2.186,5.842-4.763c0.12-0.533,0.135-1.107-0.074-1.612c-0.22-0.532-0.662-0.936-1.111-1.297
				c-2.264-1.822-5.048-3.042-6.902-5.28c-0.632-0.762-1.177-1.659-2.065-2.096c-2.159-1.062-4.546,1.193-6.952,1.152
				c-2.264-0.039-3.185-2.083-4.965-2.731C373.229,356.093,372.525,357.459,372.083,358.821z"/>
			<polygon style="fill:#50B4BE;" points="346.709,357.268 338.663,409.427 338.665,409.427 346.71,357.269 			"/>
			<path style="fill:#50B4BE;" d="M340.604,354.21c-4.818-1.501-10.068-0.762-14.895,0.709c-3.786,1.154-7.427,2.738-11.154,4.065
				l-10.132,49.859c8.426,0.75,17.165-1.455,25.673-0.83c2.894,0.213,5.819,0.506,8.567,1.414l8.046-52.159
				C344.792,356.002,342.79,354.891,340.604,354.21z"/>
			<path style="fill:#48A3A8;" d="M348.491,414.175c3.733,1.438,7.871,1.596,11.823,0.977c2.665-0.418,5.443-1.285,7.161-3.365
				c1.633-1.977,2.008-4.665,2.821-7.096c0.833-2.492,2.193-4.801,3.947-6.758l2.117-20.115c-6.383-2.266-13.883-3.197-18.032-8.538
				c-1.364-1.756-2.23-3.859-3.623-5.592c-1.252-1.558-2.884-2.76-4.496-3.943c-1.148-0.842-2.308-1.689-3.5-2.477l-8.045,52.158
				c0.27,0.09,0.541,0.178,0.808,0.28C342.609,410.906,345.358,412.968,348.491,414.175z"/>
			<path style="fill:#50B4BE;" d="M375.674,396.485c2.734-2.462,6.32-4.334,7.662-7.759c0.926-2.362,0.515-5.199-1.043-7.201
				c-1.422-1.827-3.612-2.876-5.791-3.658c-0.029-0.01-0.06-0.02-0.089-0.03l-2.106,20.026
				C374.742,397.383,375.193,396.918,375.674,396.485z"/>
			<path style="fill:#50B4BE;" d="M374.243,397.933c0.021-0.024,0.043-0.047,0.064-0.07l2.106-20.026
				c-0.018-0.006-0.036-0.012-0.053-0.018L374.243,397.933z"/>
			<path style="fill:#48A3A8;" d="M373.897,354.627c-0.69,1.241-1.395,2.607-1.836,3.969c-1.393,4.293,1.069,9.208,4.945,11.52
				c0.052,0.031,0.105,0.057,0.157,0.087l1.355-12.871C376.5,357.105,375.582,355.24,373.897,354.627z"/>
			<path style="fill:#50B4BE;" d="M390.123,371.253c2.542-0.718,5.262-2.186,5.842-4.763c0.12-0.533,0.134-1.107-0.074-1.612
				c-0.22-0.532-0.662-0.936-1.111-1.297c-2.264-1.822-5.048-3.042-6.902-5.28c-0.632-0.762-1.177-1.659-2.065-2.096
				c-2.159-1.062-4.546,1.193-6.951,1.152c-0.101-0.002-0.196-0.012-0.291-0.021l-1.356,12.895
				C381.056,372.424,385.857,372.457,390.123,371.253z"/>
			<path style="fill:#50B4BE;" d="M377.162,370.203c0.017,0.01,0.035,0.019,0.052,0.028l1.356-12.895
				c-0.017-0.002-0.036-0.002-0.053-0.004L377.162,370.203z"/>
			<polygon style="fill:#50B4BE;" points="409.17,380.157 407.776,405.011 407.777,405.01 409.172,380.156 			"/>
			<path style="fill:#50B4BE;" d="M400.341,389.234c-1.756,2.513-3.239,5.358-3.373,8.42c-0.134,3.062,1.376,6.353,4.197,7.552
				c2.093,0.889,4.388,0.512,6.611-0.195l1.394-24.854C405.783,382.717,402.771,385.755,400.341,389.234z"/>
			<path style="fill:#48A3A8;" d="M419.65,403.41c2.278,1.279,3.367,3.939,4.058,6.459c0.691,2.52,1.203,5.211,2.872,7.221
				c0.897,1.081,2.076,1.891,3.288,2.603c3.698,2.171,7.865,3.509,12.127,3.975l0.366-53.512c-1.872-0.563-4.205-0.071-6.058,0.098
				c-6.072,0.554-12.091,1.947-17.688,4.392c-3.344,1.46-6.531,3.31-9.443,5.511l-1.394,24.854c0.898-0.286,1.785-0.625,2.641-0.958
				C413.394,402.895,416.866,401.846,419.65,403.41z"/>
			<path style="fill:#FF8155;" d="M397.579,312.675c-9.911-2.365-19.863,3.751-22.229,13.662
				c-2.365,9.911,11.268,37.568,11.268,37.568s22.258-19.091,24.623-29.002C413.607,324.992,407.49,315.04,397.579,312.675z
				 M392.043,335.871c-3.695-0.882-5.976-4.593-5.094-8.288c0.882-3.695,4.593-5.976,8.288-5.094
				c3.695,0.882,5.976,4.593,5.094,8.288C399.449,334.472,395.738,336.753,392.043,335.871z"/>
			<path style="fill:#FF8155;" d="M338.294,338.544c-5.605-1.338-11.234,2.122-12.572,7.727c-1.338,5.605,6.373,21.247,6.373,21.247
				s12.588-10.797,13.926-16.402C347.359,345.51,343.9,339.882,338.294,338.544z M335.163,351.663
				c-2.09-0.499-3.38-2.598-2.881-4.687c0.499-2.09,2.597-3.38,4.687-2.881c2.09,0.499,3.38,2.598,2.881,4.688
				C339.352,350.872,337.253,352.162,335.163,351.663z"/>
		</g>
	</g>
	<g>
		<path style="opacity:0.44;fill:#B5B5B5;" d="M245.737,400.631l-0.145-0.017l-1.009-15.318c-0.072-1.091-0.5-2.129-1.219-2.954
			l-7.215-8.286c-0.822-0.945-1.971-1.547-3.216-1.686l-45.58-5.084l-9.791-33.688c-0.151-0.521-0.387-1.013-0.695-1.457
			c-2.315-3.333-5.956-5.502-9.991-5.951l-34.729-3.839c-0.628-1.747-2.205-3.062-4.153-3.279l-6.441-0.718
			c-1.96-0.215-3.789,0.728-4.781,2.299l-8.157-0.901c-9.683-1.086-14.276,5.697-15.006,10.517c-0.01,0.064-0.019,0.129-0.025,0.194
			l-2.906,26.061l-34.032-3.814c-2.736-0.31-5.217,1.667-5.525,4.41l-0.296,2.63c-2.274,0.789-4.018,2.828-4.303,5.376l-0.887,7.944
			c-0.281,2.539,0.962,4.904,2.997,6.178l-0.109,0.973l-0.308-0.034c-2.741-0.316-5.217,1.671-5.523,4.414l-0.922,8.266
			c-0.307,2.745,1.67,5.218,4.414,5.523l3.644,0.407c1.686,1.53,3.843,2.657,6.153,2.867c-0.525,1.708-0.893,3.467-1.092,5.254
			c-0.855,7.661,1.325,15.196,6.138,21.218c4.813,6.022,11.684,9.808,19.344,10.661c7.665,0.858,15.195-1.326,21.217-6.138
			c3.367-2.692,6.034-6.027,7.881-9.783c0.542,0.612,1.215,1.129,1.998,1.514c-2.926,5.39-5.881,11.755-5.85,15.435
			c0.118,5.575,2.999,9,8.333,9.906c0.511,0.098,1.023,0.145,1.569,0.145c0.059,0,0.117,0,0.177-0.001
			c1.57-0.034,3.154-0.447,4.798-1.255c0.5,0.107,1.023,0.173,1.496,0.163c3.027-0.064,4.93-2.354,5.571-3.282
			c1.756-2.478,3.438-4.626,5.151-6.582c0.568-0.653,1.362-1.528,2.237-2.465c0.259,0.171,0.53,0.32,0.811,0.452
			c-0.365,1.134-0.541,2.13-0.521,3.06c0.052,2.485,1.236,4.945,3.25,6.748c0.4,0.359,0.826,0.684,1.27,0.975
			c-1.551,2.663-2.591,4.458-2.784,4.796c-0.876,1.585-1.248,3.154-1.207,5.089c0.002,0.089,0.006,0.179,0.013,0.268
			c0.32,4.272,4.242,6.843,6.974,6.843c0.026,0,0.053-0.001,0.079-0.001c1.236-0.026,3.029-0.49,4.524-2.521
			c0.316-0.421,0.675-1.018,2.769-4.539c1.423-2.393,3.324-5.59,5.338-8.904c0.64,0.139,1.309,0.199,2.021,0.189
			c10.213-0.217,18.723-12.605,21.067-20.377c2.035,12.45,12.14,22.57,25.279,24.036c1.088,0.122,2.174,0.182,3.253,0.182
			c6.519,0,12.799-2.191,17.964-6.32c6.021-4.813,9.808-11.683,10.661-19.343c0.114-1.02,0.173-2.042,0.176-3.064
			c2.172,0.318,5.499-0.059,9.206-3.572c0.613-0.581,1.056-1.293,1.309-2.063c1.514-0.719,2.631-2.18,2.83-3.966l0.922-8.266
			C250.458,403.41,248.481,400.937,245.737,400.631z M136.553,412.383l11.607,1.294c-0.413,1.088-0.625,2.222-0.602,3.334
			c0.001,0.074,0.012,0.14,0.016,0.213c-0.497,0.241-1.001,0.537-1.514,0.881c-1.273-0.899-2.845-1.418-4.555-1.393
			c0,0-0.001,0-0.002,0c-0.965,0.021-1.901,0.168-2.809,0.419c0.004-0.114,0.005-0.229,0.002-0.345
			C138.662,415.032,137.939,413.553,136.553,412.383z M157.556,416.802c0.003,0.16-0.016,0.282-0.034,0.357
			c-0.113,0.057-0.337,0.134-0.65,0.141c-0.089,0.002-0.183-0.017-0.275-0.024c0.329-0.305,0.628-0.651,0.884-1.021
			C157.527,416.453,157.553,416.639,157.556,416.802z M153.489,414.271c-0.02,0.027-0.042,0.053-0.061,0.081
			c-0.005-0.03-0.008-0.06-0.012-0.089L153.489,414.271z M112.43,410.075c1.461,0.473,3.101,0.578,4.826,0.156l1.239,0.138
			c-0.629,0.039-1.258,0.076-1.887,0.133c-0.036,0.003-0.072,0.007-0.108,0.011c-1.023,0.116-2.653,0.686-4.156,1.656
			C112.395,411.469,112.43,410.77,112.43,410.075z M173.137,417.111c0.044-0.205,0.077-0.418,0.098-0.638l3.102,0.346
			c0.845,0.099,1.698-0.029,2.473-0.352c0.119-0.024,0.237-0.051,0.354-0.079c-0.38,1.406-0.654,2.844-0.816,4.3
			c-0.017,0.15-0.024,0.299-0.039,0.449c-0.359-0.716-0.819-1.372-1.378-1.94C175.898,418.149,174.592,417.437,173.137,417.111z"/>
		<path style="fill:#FFFFFF;" d="M241.953,392.117l-0.145-0.017l-1.009-15.318c-0.072-1.091-0.5-2.129-1.219-2.954l-7.215-8.286
			c-0.822-0.945-1.971-1.547-3.216-1.686l-45.58-5.084l-9.791-33.688c-0.151-0.52-0.387-1.013-0.695-1.457
			c-2.315-3.333-5.956-5.502-9.991-5.951l-34.729-3.839c-0.628-1.747-2.205-3.061-4.153-3.279l-6.441-0.718
			c-1.96-0.215-3.789,0.729-4.781,2.299l-8.157-0.901c-9.683-1.086-14.276,5.697-15.006,10.517c-0.01,0.064-0.019,0.129-0.025,0.194
			l-2.906,26.062l-34.032-3.814c-2.736-0.31-5.217,1.667-5.525,4.41l-0.296,2.63c-2.274,0.789-4.018,2.828-4.303,5.376l-0.887,7.944
			c-0.281,2.539,0.962,4.904,2.997,6.178l-0.109,0.973l-0.308-0.034c-2.741-0.316-5.217,1.671-5.522,4.414l-0.922,8.266
			c-0.307,2.745,1.67,5.218,4.414,5.523l3.644,0.407c1.687,1.53,3.843,2.657,6.153,2.867c-0.525,1.708-0.894,3.467-1.092,5.254
			c-0.855,7.661,1.325,15.196,6.138,21.218c4.814,6.021,11.684,9.808,19.344,10.661c7.665,0.858,15.195-1.326,21.217-6.138
			c3.367-2.691,6.034-6.027,7.881-9.783c0.542,0.612,1.215,1.129,1.998,1.514c-2.926,5.39-5.881,11.755-5.85,15.434
			c0.118,5.575,2.999,9,8.333,9.906c0.511,0.098,1.023,0.145,1.569,0.145c0.059,0,0.117,0,0.177-0.001
			c1.57-0.034,3.154-0.447,4.798-1.255c0.5,0.106,1.023,0.173,1.496,0.163c3.027-0.063,4.93-2.354,5.571-3.282
			c1.756-2.478,3.438-4.626,5.151-6.582c0.568-0.653,1.362-1.528,2.237-2.465c0.259,0.171,0.531,0.32,0.811,0.452
			c-0.365,1.134-0.54,2.13-0.521,3.059c0.052,2.485,1.236,4.945,3.25,6.748c0.4,0.359,0.826,0.685,1.27,0.975
			c-1.551,2.663-2.591,4.458-2.784,4.796c-0.876,1.585-1.248,3.154-1.207,5.089c0.002,0.089,0.006,0.179,0.013,0.267
			c0.32,4.272,4.242,6.843,6.974,6.843c0.026,0,0.053-0.001,0.079-0.001c1.236-0.026,3.029-0.49,4.524-2.521
			c0.316-0.421,0.675-1.018,2.769-4.539c1.423-2.393,3.324-5.59,5.338-8.904c0.64,0.139,1.309,0.199,2.021,0.189
			c10.213-0.217,18.723-12.605,21.067-20.377c2.035,12.45,12.14,22.57,25.279,24.036c1.088,0.122,2.174,0.182,3.253,0.182
			c6.518,0,12.799-2.191,17.964-6.32c6.021-4.813,9.808-11.683,10.661-19.343c0.114-1.02,0.173-2.042,0.176-3.064
			c2.172,0.318,5.499-0.059,9.206-3.572c0.613-0.581,1.056-1.293,1.309-2.063c1.514-0.719,2.631-2.18,2.83-3.966l0.922-8.266
			C246.673,394.896,244.697,392.423,241.953,392.117z M132.769,403.868l11.607,1.294c-0.413,1.088-0.625,2.222-0.602,3.334
			c0.001,0.074,0.012,0.14,0.016,0.213c-0.497,0.241-1.001,0.537-1.514,0.881c-1.273-0.899-2.845-1.419-4.555-1.393
			c0,0-0.001,0-0.002,0c-0.965,0.021-1.901,0.168-2.809,0.419c0.004-0.114,0.005-0.23,0.002-0.345
			C134.878,406.518,134.155,405.039,132.769,403.868z M153.772,408.288c0.003,0.16-0.016,0.282-0.034,0.357
			c-0.113,0.057-0.337,0.134-0.65,0.141c-0.09,0.002-0.183-0.017-0.275-0.024c0.329-0.305,0.628-0.651,0.884-1.021
			C153.743,407.939,153.769,408.125,153.772,408.288z M149.705,405.757c-0.02,0.027-0.042,0.053-0.061,0.081
			c-0.005-0.03-0.008-0.06-0.012-0.089L149.705,405.757z M108.646,401.56c1.461,0.473,3.101,0.578,4.826,0.156l1.239,0.138
			c-0.629,0.039-1.258,0.076-1.887,0.133c-0.036,0.003-0.072,0.007-0.108,0.011c-1.023,0.116-2.653,0.686-4.156,1.656
			C108.611,402.955,108.646,402.256,108.646,401.56z M169.353,408.597c0.044-0.205,0.077-0.418,0.098-0.638l3.102,0.346
			c0.845,0.099,1.698-0.029,2.473-0.352c0.119-0.024,0.237-0.051,0.354-0.079c-0.38,1.406-0.654,2.844-0.816,4.3
			c-0.017,0.15-0.024,0.299-0.039,0.449c-0.359-0.716-0.819-1.372-1.378-1.94C172.114,409.635,170.808,408.923,169.353,408.597z"/>
		<g>
			<g>
				<path style="fill:none;stroke:#0F2328;stroke-width:5;stroke-linecap:round;stroke-linejoin:round;stroke-miterlimit:10;" d="
					M91.23,354.214l3.536-31.711c0,0,1.095-7.234,9.508-6.296l58.268,6.439c2.597,0.29,4.943,1.688,6.433,3.834l10.706,36.831"/>
				<path style="fill:#FF8155;" d="M51.886,365.673c-0.088,0.793-0.803,1.364-1.596,1.275l-2.196-0.245
					c-0.792-0.088-1.363-0.803-1.275-1.595l0.885-7.94c0.089-0.793,0.803-1.364,1.595-1.276l2.196,0.245
					c0.793,0.088,1.364,0.803,1.276,1.596L51.886,365.673z"/>
				
					<rect x="55.629" y="366.229" transform="matrix(0.9938 0.1108 -0.1108 0.9938 42.2638 -7.0026)" style="fill:#7C7C7C;" width="56.982" height="20.866"/>
				
					<rect x="174.239" y="379.456" transform="matrix(0.9938 0.1108 -0.1108 0.9938 44.4604 -20.0666)" style="fill:#7C7C7C;" width="56.982" height="20.866"/>
				<path style="fill:#FFBF61;" d="M52.302,349.165l-3.816,33.937l8.046,0.897c0,0,7.176-17.167,29.171-14.98
					c21.416,2.129,22.823,26.007,22.823,26.007l66.199,7.639c0,0,6.496-23.182,34.531-20.056c0,0,20.372,0.525,19.487,20.654
					l8.86,1.079l-1.794-27.23l-7.214-8.287l-48.552-5.414l-24.264-2.648L52.302,349.165z"/>
				
					<rect x="110.741" y="393.655" transform="matrix(0.9938 0.1108 -0.1108 0.9938 44.8496 -13.315)" style="fill:#7C7C7C;" width="62.904" height="6.214"/>
				
					<rect x="43.376" y="377.293" transform="matrix(0.9938 0.1108 -0.1108 0.9938 42.5834 -3.1345)" style="fill:#0F2328;" width="12.217" height="8.317"/>
				
					<rect x="229.536" y="396.427" transform="matrix(0.9938 0.1108 -0.1108 0.9938 45.8457 -23.6052)" style="fill:#0F2328;" width="11.437" height="8.317"/>
				<path style="fill:#0F2328;" d="M54.438,387.85l11.485-13.662c0,0,3.76-4.686,11.017-3.877
					c7.257,0.809,16.184,1.805,16.184,1.805s5.858,0.146,9.464,9.398l5.352,13.423c0,0,2.581,4.771,7.872-0.243l-8.193-21.54
					c0,0-2.319-7.028-12.61-8.549l-17.834-1.989c0,0-9.293-1.51-16.675,7.457l-11.925,15.628
					C48.575,385.702,51.417,389.257,54.438,387.85z"/>
				<path style="fill:#0F2328;" d="M177.02,401.176l10.958-13.376c0,0,3.76-4.686,11.017-3.877
					c7.257,0.809,16.184,1.805,16.184,1.805s5.858,0.146,9.464,9.398l5.352,13.423c0,0,2.581,4.771,7.872-0.243l-8.193-21.54
					c0,0-2.319-7.028-12.61-8.549l-17.834-1.989c0,0-9.293-1.51-16.675,7.457l-14.381,18.489
					C168.174,402.174,174.208,405.031,177.02,401.176z"/>
				<polygon style="fill:#FFBF61;" points="110.69,355.771 117.214,314.81 123.654,315.529 122.498,357.088 				"/>
				<g>
					
						<ellipse transform="matrix(0.5844 -0.8115 0.8115 0.5844 -292.7322 231.6537)" style="fill:#0F2328;" cx="79.783" cy="401.603" rx="23.858" ry="23.858"/>
					<g>
						<path style="fill:#FFFFFF;" d="M90.894,405.265l0.459-1.885l-6.5-1.654c0.027-0.671-0.078-1.319-0.294-1.92l5.915-3.07
							l-0.923-1.706l-5.984,3.106c-0.377-0.425-0.822-0.791-1.327-1.072l2.148-6.332l-1.837-0.623l-2.154,6.354
							c-0.024-0.003-0.048-0.009-0.073-0.012c-0.562-0.063-1.111-0.028-1.635,0.085l-2.803-6.106l-1.768,0.796l2.787,6.07
							c-0.606,0.409-1.12,0.947-1.504,1.579l-6.204-2.467l-0.721,1.801l6.254,2.486c-0.014,0.088-0.032,0.174-0.042,0.263
							c-0.07,0.624-0.019,1.232,0.126,1.807l-5.837,3.518l0.998,1.663l5.668-3.416c0.509,0.696,1.189,1.263,1.99,1.631l-1.93,6.373
							l1.862,0.542l1.957-6.46c0.715,0.034,1.408-0.081,2.044-0.322l3.087,5.846l1.739-0.857l-3.173-6.011
							c0.5-0.462,0.912-1.022,1.198-1.659L90.894,405.265z"/>
						<path style="fill:#FFFFFF;" d="M81.267,387.988c-7.475-0.834-14.212,4.551-15.046,12.027
							c-0.834,7.476,4.551,14.213,12.027,15.046c7.477,0.834,14.213-4.551,15.047-12.027
							C94.129,395.558,88.744,388.822,81.267,387.988z M78.46,413.159c-6.425-0.716-11.054-6.507-10.337-12.932
							c0.717-6.426,6.507-11.054,12.932-10.337c6.426,0.717,11.054,6.506,10.337,12.932
							C90.676,409.248,84.887,413.876,78.46,413.159z"/>
						<path style="fill:#0F2328;" d="M81.892,401.701c-0.134,1.201-1.216,2.066-2.417,1.932c-1.2-0.134-2.065-1.216-1.931-2.417
							c0.134-1.2,1.216-2.066,2.415-1.932C81.161,399.418,82.026,400.501,81.892,401.701z"/>
					</g>
				</g>
				<g>
					
						<ellipse transform="matrix(0.4389 -0.8985 0.8985 0.4389 -259.1855 415.701)" style="fill:#0F2328;" cx="203.245" cy="415.371" rx="23.858" ry="23.858"/>
					<g>
						<path style="fill:#FFFFFF;" d="M214.355,419.033l0.459-1.885l-6.5-1.654c0.027-0.671-0.078-1.319-0.294-1.92l5.915-3.07
							l-0.923-1.706l-5.984,3.106c-0.377-0.425-0.822-0.791-1.327-1.072l2.148-6.332l-1.837-0.623l-2.154,6.354
							c-0.024-0.003-0.048-0.009-0.073-0.012c-0.561-0.063-1.111-0.028-1.635,0.085l-2.804-6.106l-1.768,0.796l2.787,6.07
							c-0.606,0.409-1.12,0.947-1.504,1.579l-6.204-2.467l-0.721,1.801l6.254,2.486c-0.014,0.088-0.032,0.174-0.042,0.263
							c-0.07,0.624-0.019,1.232,0.126,1.807l-5.837,3.518l0.998,1.663l5.668-3.416c0.509,0.696,1.189,1.263,1.99,1.631l-1.93,6.374
							l1.862,0.542l1.957-6.46c0.715,0.034,1.408-0.08,2.044-0.322l3.087,5.846l1.739-0.857l-3.173-6.011
							c0.5-0.462,0.912-1.022,1.198-1.658L214.355,419.033z"/>
						<path style="fill:#FFFFFF;" d="M204.729,401.756c-7.475-0.834-14.212,4.551-15.046,12.027
							c-0.834,7.476,4.551,14.213,12.027,15.046c7.477,0.834,14.213-4.551,15.047-12.027
							C217.59,409.326,212.205,402.59,204.729,401.756z M201.922,426.927c-6.425-0.716-11.054-6.506-10.337-12.932
							c0.717-6.426,6.507-11.054,12.932-10.337c6.426,0.717,11.054,6.506,10.337,12.932
							C214.137,423.016,208.348,427.644,201.922,426.927z"/>
						<path style="fill:#0F2328;" d="M205.354,415.469c-0.134,1.201-1.216,2.066-2.417,1.932c-1.2-0.134-2.065-1.216-1.931-2.417
							c0.134-1.2,1.216-2.066,2.415-1.932C204.623,413.186,205.487,414.269,205.354,415.469z"/>
					</g>
				</g>
			</g>
			
				<text transform="matrix(0.9933 0.1158 -0.1158 0.9933 127.7009 383.4791)" style="fill:#FFFFFF; font-family:'BebasNeueBold'; font-size:18.4385px; letter-spacing:1;">ROAD</text>
			
				<text transform="matrix(0.9998 -0.0212 0.0212 0.9998 105.5441 435.4516)" style="fill:#50B4BE; font-family:'Yellowtail'; font-size:54.3924px;">trip</text>
		</g>
	</g>
	<g>
		<path style="opacity:0.44;fill:#B5B5B5;" d="M477.574,159.419c-0.438-1.254-1.376-2.292-2.573-2.867l-19.112-9.182
			c-0.479-1.081-1.33-1.961-2.404-2.477l-3.528-1.695c-1.115-0.536-2.33-0.622-3.437-0.329l-0.976-0.469l4.129-8.537
			c0.578-1.196,0.657-2.573,0.219-3.827c-0.438-1.254-1.357-2.282-2.555-2.857l-45.484-21.853c-2.485-1.193-5.466-0.15-6.666,2.33
			l-4.141,8.56l-0.012-0.005c-0.479-1.081-1.33-1.961-2.404-2.478l-3.529-1.695c-1.115-0.536-2.329-0.622-3.437-0.329l-18.53-8.902
			c-2.486-1.194-5.467-0.15-6.666,2.33l-34.578,71.483c-0.578,1.196-0.657,2.573-0.219,3.827c0.438,1.254,1.357,2.282,2.555,2.857
			l17.805,8.553c0.046,0.249,0.111,0.496,0.195,0.737c0.438,1.254,1.357,2.283,2.556,2.858l3.528,1.695
			c1.495,0.718,3.168,0.626,4.526-0.099l54.05,25.968c0.046,0.249,0.111,0.496,0.196,0.738c0.438,1.254,1.357,2.282,2.555,2.857
			l3.529,1.695c1.495,0.718,3.168,0.626,4.524-0.099l18.439,8.859c0.698,0.335,1.436,0.494,2.161,0.494
			c1.858,0,3.643-1.04,4.505-2.824l7.051-14.577c0.092-0.19,0.171-0.385,0.237-0.584l19.922-41.185
			c0.116-0.178,0.223-0.365,0.317-0.562l7.052-14.576C477.952,162.059,478.012,160.673,477.574,159.419z"/>
		<path style="fill:#FFFFFF;" d="M474.696,152.385c-0.438-1.254-1.376-2.291-2.573-2.867l-19.112-9.182
			c-0.479-1.081-1.33-1.961-2.404-2.478l-3.528-1.695c-1.115-0.536-2.33-0.622-3.438-0.329l-0.976-0.469l4.129-8.537
			c0.578-1.196,0.657-2.573,0.219-3.827c-0.438-1.254-1.357-2.282-2.555-2.857l-45.484-21.853c-2.485-1.193-5.466-0.15-6.666,2.33
			l-4.141,8.56l-0.012-0.005c-0.48-1.081-1.33-1.962-2.404-2.478l-3.529-1.695c-1.115-0.536-2.329-0.622-3.437-0.329l-18.53-8.902
			c-2.486-1.194-5.467-0.15-6.666,2.33l-34.578,71.483c-0.578,1.196-0.657,2.573-0.219,3.827c0.438,1.254,1.357,2.282,2.555,2.857
			l17.805,8.553c0.046,0.249,0.111,0.496,0.195,0.737c0.438,1.254,1.357,2.283,2.556,2.858l3.528,1.695
			c1.495,0.718,3.168,0.625,4.526-0.099l54.05,25.968c0.046,0.249,0.111,0.496,0.196,0.738c0.438,1.254,1.357,2.282,2.555,2.858
			l3.529,1.695c1.495,0.718,3.168,0.626,4.524-0.099l18.44,8.859c0.698,0.335,1.435,0.494,2.161,0.494
			c1.858,0,3.643-1.04,4.505-2.824l7.051-14.577c0.092-0.19,0.171-0.385,0.237-0.584l19.922-41.185
			c0.116-0.178,0.223-0.365,0.317-0.561l7.052-14.576C475.074,155.024,475.134,153.639,474.696,152.385z"/>
		<g>
			<polygon style="fill:#2C576A;" points="435.379,225.507 323.512,171.761 358.09,100.279 469.957,154.025 			"/>
			<path style="fill:#FF8155;" d="M353.927,116.243l-2.889-1.388l7.051-14.576l14.691,7.058l-1.387,2.866
				C368.266,116.671,360.445,119.375,353.927,116.243z"/>
			<path style="fill:#FF8155;" d="M462.943,168.619l-2.889-1.388c-6.518-3.132-9.266-10.913-6.138-17.381l1.386-2.866l14.691,7.058
				L462.943,168.619z"/>
			<path style="fill:#FF8155;" d="M338.202,178.82l-14.691-7.058l7.051-14.577l2.888,1.388c6.518,3.132,9.266,10.913,6.138,17.381
				L338.202,178.82z"/>
			<path style="fill:#FF8155;" d="M435.416,225.526l-14.691-7.058l1.387-2.866c3.129-6.467,10.949-9.172,17.467-6.04l2.888,1.388
				L435.416,225.526z"/>
			<polygon style="fill:#FF8155;" points="412.452,216.765 408.923,215.07 444.913,140.67 448.441,142.365 			"/>
			<path style="fill:#2C576A;" d="M442.292,124.651l-45.484-21.852l-8.552,17.679l45.484,21.853L442.292,124.651z M399.264,109.752
				l36.042,17.316l-4.02,8.31l-36.042-17.316L399.264,109.752z"/>
			
				<rect x="356.026" y="140.465" transform="matrix(0.9697 0.2443 -0.2443 0.9697 46.2308 -84.7087)" style="fill:#FFE49F;" width="17.245" height="7.153"/>
			<path style="fill:#FFFFFF;" d="M377.269,171.493c-1.258,2.599-4.401,3.686-7.021,2.428c-2.62-1.259-3.724-4.386-2.467-6.986
				c1.257-2.6,4.401-3.686,7.021-2.428C377.422,165.765,378.526,168.893,377.269,171.493z"/>
			<polygon style="fill:#FF8155;" points="347.596,185.605 344.067,183.91 380.056,109.51 383.585,111.206 			"/>
			<polygon style="fill:#FFFFFF;" points="389.536,148.35 381.167,140.695 388.841,132.404 397.21,140.06 			"/>
		</g>
	</g>
	<g>
		<path style="opacity:0.44;fill:#B5B5B5;" d="M96.855,179.861c-0.711,1.12-0.948,2.476-0.659,3.77l6.225,27.869
			c0.289,1.295,1.081,2.421,2.2,3.131c0.186,0.118,0.378,0.223,0.575,0.314l1.611,7.218c-3.39-0.95-7.064-1.534-10.745-1.701
			c-0.763-0.04-1.499,0.104-2.17,0.388c-0.675-0.289-1.417-0.432-2.171-0.397c-8.358,0.35-16.389,2.834-23.225,7.183
			c-1.112,0.708-1.9,1.827-2.191,3.114c-1.433,6.323-1.474,13.198-0.118,19.882c0.152,0.752,0.473,1.444,0.922,2.035
			c-0.121,0.731-0.081,1.494,0.137,2.233c1.283,4.352,3.114,8.436,5.442,12.138c0.369,0.588,0.852,1.085,1.411,1.467
			c0.161,0.659,0.459,1.294,0.897,1.863c2.082,2.698,4.372,4.968,6.811,6.746c2.257,1.646,4.786,3.035,7.515,4.128
			c0.697,0.278,1.434,0.393,2.139,0.351c0.546,0.464,1.193,0.811,1.902,1.008c3.732,1.034,7.648,1.549,11.669,1.549
			c5.101,0,10.369-0.83,15.635-2.481c11.55,0.72,24.984-4.503,36.198-14.117c0.637-0.546,1.119-1.237,1.414-2.006
			c0.782-0.23,1.513-0.653,2.114-1.254c1.089-1.084,2.13-2.203,3.097-3.327c0.298-0.347,0.601-0.718,0.905-1.1
			c0.476-0.595,0.794-1.269,0.959-1.97c0.611-0.37,1.149-0.876,1.566-1.501c1.214-1.822,2.376-3.791,3.452-5.853
			c0.34-0.649,0.528-1.358,0.563-2.077c0.534-0.467,0.973-1.051,1.274-1.726c0.704-1.578,1.352-3.202,1.928-4.827
			c0.233-0.657,0.319-1.333,0.276-1.992c0.418-0.516,0.737-1.122,0.926-1.792c0.412-1.472,0.762-2.955,1.039-4.407
			c0.109-0.578,0.115-1.156,0.027-1.714c0.254-0.508,0.425-1.067,0.494-1.661c0.527-4.547,0.299-8.799-0.679-12.639
			c-0.496-1.944-2.105-3.405-4.09-3.708c-4.064-0.623-8.556-0.382-13.345,0.712c-0.505,0.116-0.975,0.304-1.401,0.552
			c-0.493-0.006-0.993,0.058-1.483,0.202c-1.528,0.448-3.096,0.987-4.658,1.601c-0.577,0.227-1.093,0.552-1.532,0.951
			c-0.588,0.042-1.177,0.189-1.738,0.449c-1.703,0.787-3.38,1.651-4.984,2.569c-0.581,0.333-1.076,0.77-1.47,1.278
			c-0.624,0.118-1.236,0.358-1.801,0.727c-1.976,1.288-3.852,2.661-5.576,4.08c-0.521,0.429-0.937,0.946-1.238,1.514
			c-0.601,0.228-1.167,0.576-1.659,1.042c-0.832,0.788-1.607,1.568-2.305,2.321c-0.241,0.261-0.482,0.527-0.725,0.801l-4.666-20.894
			l64.333-14.369c1.694-0.378,3.07-1.608,3.637-3.249l5.459-15.819c0.615-1.782,0.176-3.758-1.137-5.111l-11.684-12.05
			c-1.21-1.248-2.979-1.778-4.68-1.399l-61.132,13.654c0.89-1.139,1.282-2.651,0.942-4.172l-6.225-27.869
			c-0.28-1.256-1.011-2.296-1.984-2.986l41.832-9.343c1.694-0.379,3.07-1.608,3.637-3.249l5.459-15.819
			c0.615-1.782,0.176-3.758-1.137-5.111l-11.684-12.05c-1.21-1.249-2.98-1.778-4.68-1.399l-45.563,10.176l-2.59-11.592
			c-0.603-2.695-3.272-4.392-5.97-3.79l-8.369,1.869c-2.695,0.602-4.392,3.275-3.79,5.97l2.814,12.6
			c-0.963,1.152-1.398,2.722-1.046,4.299l6.225,27.869c0.27,1.209,0.978,2.271,1.983,2.986l-61.644,13.767
			c-1.697,0.379-3.075,1.613-3.64,3.257l-5.446,15.875c-0.611,1.783-0.169,3.759,1.146,5.109l11.671,11.994
			c1.21,1.244,2.975,1.771,4.673,1.393l62.175-13.887C97.038,179.588,96.943,179.722,96.855,179.861z M82.2,235.916
			c0.136,0.87,0.464,1.703,0.932,2.471c-1.042-0.332-1.894-1.537-1.136-2.614c0.055-0.078,0.117-0.14,0.178-0.202
			C82.186,235.686,82.182,235.802,82.2,235.916z M108.399,242.883c0.626-0.89,1.698-0.774,2.429-0.22
			c-0.769,0.781-1.495,1.532-2.193,2.269C108.114,244.396,107.886,243.612,108.399,242.883z M93.121,243.926l-2.223-1.563
			c0.583-0.828,1.554-0.782,2.275-0.325C93.064,242.661,93.045,243.296,93.121,243.926z M93.121,243.927
			c0.039,0.317,0.111,0.632,0.197,0.945c-1.354,0.785-3.49-0.986-2.421-2.508c0,0,0,0,0,0L93.121,243.927z M96.818,257.814
			c0.988-1.406,3.1-0.31,3.201,1.076c-1.092,0.054-2.12,0.367-3.018,0.913C96.52,259.269,96.324,258.517,96.818,257.814z"/>
		<path style="fill:#FFFFFF;" d="M92.059,173.786c-0.711,1.12-0.948,2.476-0.659,3.77l6.225,27.869
			c0.289,1.294,1.081,2.421,2.2,3.131c0.186,0.118,0.378,0.223,0.575,0.314l1.611,7.218c-3.39-0.95-7.064-1.534-10.745-1.701
			c-0.763-0.04-1.499,0.104-2.17,0.388c-0.675-0.289-1.417-0.432-2.171-0.397c-8.358,0.35-16.389,2.833-23.225,7.183
			c-1.112,0.708-1.9,1.827-2.192,3.114c-1.433,6.323-1.474,13.198-0.118,19.882c0.152,0.752,0.473,1.444,0.922,2.035
			c-0.121,0.731-0.081,1.494,0.137,2.233c1.283,4.352,3.114,8.436,5.442,12.138c0.369,0.588,0.851,1.085,1.411,1.467
			c0.161,0.659,0.459,1.294,0.897,1.863c2.082,2.698,4.372,4.968,6.811,6.746c2.257,1.647,4.786,3.035,7.515,4.128
			c0.697,0.278,1.434,0.393,2.139,0.351c0.546,0.464,1.193,0.812,1.902,1.008c3.732,1.034,7.648,1.549,11.669,1.549
			c5.101,0,10.369-0.83,15.635-2.482c11.55,0.72,24.984-4.503,36.198-14.117c0.637-0.546,1.119-1.237,1.414-2.006
			c0.782-0.23,1.513-0.653,2.114-1.254c1.089-1.084,2.13-2.203,3.097-3.327c0.298-0.347,0.601-0.718,0.905-1.1
			c0.476-0.595,0.794-1.268,0.959-1.97c0.611-0.37,1.149-0.876,1.566-1.502c1.214-1.822,2.376-3.791,3.452-5.853
			c0.34-0.649,0.528-1.358,0.563-2.077c0.534-0.467,0.973-1.051,1.274-1.726c0.704-1.578,1.353-3.202,1.928-4.827
			c0.232-0.657,0.319-1.333,0.276-1.992c0.418-0.516,0.737-1.122,0.926-1.792c0.412-1.472,0.762-2.955,1.039-4.407
			c0.109-0.578,0.115-1.156,0.027-1.714c0.254-0.508,0.425-1.067,0.494-1.661c0.527-4.547,0.299-8.799-0.679-12.639
			c-0.496-1.944-2.105-3.405-4.09-3.708c-4.064-0.623-8.556-0.382-13.345,0.712c-0.505,0.116-0.975,0.304-1.401,0.552
			c-0.493-0.006-0.993,0.058-1.483,0.202c-1.528,0.448-3.096,0.987-4.658,1.601c-0.577,0.227-1.093,0.552-1.532,0.951
			c-0.588,0.042-1.177,0.189-1.738,0.449c-1.703,0.787-3.38,1.651-4.984,2.569c-0.581,0.333-1.076,0.77-1.47,1.278
			c-0.624,0.118-1.236,0.358-1.801,0.727c-1.976,1.288-3.852,2.661-5.576,4.08c-0.521,0.429-0.937,0.946-1.238,1.514
			c-0.602,0.228-1.167,0.576-1.659,1.042c-0.832,0.788-1.607,1.568-2.305,2.321c-0.241,0.261-0.482,0.527-0.725,0.801l-4.666-20.893
			l64.333-14.369c1.694-0.378,3.07-1.608,3.637-3.249l5.459-15.819c0.615-1.782,0.176-3.758-1.137-5.111l-11.684-12.05
			c-1.21-1.249-2.98-1.778-4.68-1.399l-61.132,13.654c0.89-1.139,1.282-2.651,0.942-4.172l-6.225-27.869
			c-0.28-1.256-1.011-2.296-1.984-2.986l41.832-9.343c1.694-0.378,3.07-1.608,3.637-3.249l5.459-15.819
			c0.615-1.782,0.176-3.758-1.137-5.111l-11.684-12.05c-1.21-1.248-2.98-1.778-4.68-1.399L94.149,95.664l-2.59-11.592
			c-0.603-2.695-3.273-4.392-5.97-3.79l-8.369,1.869c-2.695,0.602-4.392,3.275-3.79,5.97l2.814,12.6
			c-0.963,1.152-1.398,2.722-1.046,4.299l6.225,27.869c0.271,1.209,0.979,2.271,1.983,2.986l-61.644,13.768
			c-1.697,0.379-3.075,1.613-3.64,3.257l-5.446,15.876c-0.611,1.783-0.169,3.759,1.147,5.109l11.671,11.994
			c1.21,1.244,2.976,1.771,4.673,1.393l62.175-13.887C92.242,173.513,92.147,173.647,92.059,173.786z M77.404,229.841
			c0.136,0.87,0.464,1.703,0.932,2.471c-1.042-0.332-1.894-1.537-1.136-2.614c0.055-0.078,0.117-0.139,0.178-0.202
			C77.39,229.611,77.386,229.727,77.404,229.841z M103.603,236.808c0.626-0.89,1.698-0.774,2.429-0.22
			c-0.769,0.781-1.495,1.532-2.193,2.269C103.318,238.321,103.09,237.537,103.603,236.808z M88.325,237.851l-2.223-1.564
			c0.583-0.828,1.554-0.782,2.275-0.325C88.268,236.586,88.248,237.221,88.325,237.851z M88.325,237.852
			c0.039,0.317,0.111,0.632,0.197,0.944c-1.354,0.785-3.49-0.986-2.421-2.508c0,0,0,0,0,0L88.325,237.852z M92.022,251.739
			c0.988-1.406,3.099-0.31,3.201,1.076c-1.092,0.053-2.12,0.367-3.018,0.913C91.723,253.194,91.528,252.441,92.022,251.739z"/>
		<g>
			<g>
				<g>
					
						<rect x="95.894" y="84.145" transform="matrix(0.976 -0.218 0.218 0.976 -33.6196 25.8115)" style="fill:#C69E8D;" width="8.576" height="162.287"/>
					<polygon style="fill:#50B4BE;" points="147.026,118.236 86.303,131.799 80.079,103.93 140.802,90.368 152.485,102.417 					"/>
					<polygon style="fill:#FFBF61;" points="181.996,186.581 102.504,204.335 96.28,176.467 175.772,158.712 187.455,170.762 					
						"/>
					<polygon style="fill:#FF8155;" points="29.077,182.391 109.613,164.404 103.388,136.535 22.853,154.522 17.407,170.398 					
						"/>
				</g>
				
					<text transform="matrix(0.9759 -0.218 0.218 0.9759 95.7442 120.8446)" style="fill:#FFFFFF; font-family:'BebasNeueBold'; font-size:17.7368px; letter-spacing:1;">let´s</text>
				
					<text transform="matrix(1.0517 -0.2349 0.218 0.9759 34.1906 175.0739)" style="fill:#FFFFFF; font-family:'Yellowtail'; font-size:27.5898px;">travel</text>
				
					<text transform="matrix(0.9759 -0.218 0.218 0.9759 109.9569 194.1667)" style="fill:#FFFFFF; font-family:'BebasNeueBold'; font-size:17.7368px; letter-spacing:1;">TOGETHER</text>
			</g>
			<path style="fill:#2C576A;" d="M105.387,244.537c3.746-4.131,7.747-8.016,11.808-11.843c-2.595-3.529-5.653-6.442-8.927-8.548
				c-0.77-0.495-1.654-0.974-2.626-1.426c-2.711,5.383-5.824,10.538-9.174,15.546c-1.175,1.757-4.087-0.299-2.915-2.05
				c3.194-4.775,6.185-9.676,8.787-14.799c-3.236-1.077-7.099-1.843-11.3-2.034c-1.654,3.656-3.579,7.188-5.57,10.652
				c-1.053,1.833-3.959-0.233-2.915-2.05c1.618-2.816,3.181-5.674,4.58-8.611c-6.705,0.28-13.978,2.096-20.749,6.406
				c-1.359,5.997-1.247,12.096-0.094,17.784c2.487-2.11,5.009-4.186,7.378-6.424c1.538-1.454,3.839,1.244,2.31,2.689
				c-2.8,2.646-5.815,5.065-8.734,7.583c1.174,3.981,2.856,7.674,4.879,10.891c3.584-3.255,7.211-6.466,10.916-9.595
				c1.622-1.369,3.929,1.322,2.31,2.689c-3.8,3.208-7.517,6.503-11.19,9.843c1.773,2.3,3.731,4.253,5.796,5.759
				c1.925,1.404,4.083,2.587,6.429,3.527c2.734-3.949,5.409-7.937,7.925-12.033c1.107-1.802,4.015,0.259,2.915,2.05
				c-2.332,3.796-4.799,7.5-7.324,11.165c9.795,2.713,22.118,1.53,34.35-5.075c2.46-11.775-0.07-22.69-5.067-30.962
				c-3.745,3.527-7.432,7.109-10.883,10.915C106.898,248.135,103.971,246.098,105.387,244.537z M103.603,236.808
				c1.215-1.728,4.128,0.324,2.915,2.05C105.303,240.586,102.39,238.534,103.603,236.808z M80.567,249.329
				c-1.215,1.728-4.128-0.324-2.915-2.05C78.867,245.551,81.781,247.603,80.567,249.329z M94.937,253.788
				c-1.215,1.728-4.128-0.324-2.915-2.05C93.237,250.011,96.15,252.063,94.937,253.788z M89.017,238.338
				c-1.215,1.728-4.128-0.324-2.915-2.05C87.317,234.56,90.23,236.613,89.017,238.338z M80.115,231.748
				c-1.215,1.728-4.128-0.324-2.915-2.05C78.415,227.97,81.328,230.022,80.115,231.748z"/>
			<path style="fill:#50B4BE;" d="M152.069,254.676c1-0.996,1.946-2.013,2.831-3.042c0.261-0.303,0.526-0.628,0.793-0.962
				l-6.005-6.276l8.276,3.151c1.081-1.623,2.16-3.438,3.182-5.396l-7.408-3.868l9.11,0.343c0.642-1.441,1.24-2.932,1.78-4.458
				l-7.241-3.781l8.342,0.314c0.37-1.319,0.686-2.653,0.942-3.991l-6.262-3.27l6.729,0.254c0.429-3.704,0.319-7.386-0.558-10.828
				c-3.583-0.548-7.497-0.265-11.475,0.644l0.807,5.86l-3.398-5.182c-1.416,0.415-2.832,0.904-4.237,1.457l1.022,7.421l-4.024-6.135
				c-1.563,0.723-3.103,1.515-4.598,2.37l1.127,8.178l-4.149-6.326c-1.808,1.179-3.531,2.438-5.131,3.754l3.599,7.208l-6.236-4.881
				c-0.726,0.687-1.42,1.382-2.071,2.085c-0.625,0.676-1.234,1.378-1.83,2.101l4.283,8.579l-6.763-5.294
				c-7.027,10.036-11.181,23.28-9.184,35.743c11.741,1.534,24.873-4.517,34.493-12.765l-6.391-6.679L152.069,254.676z"/>
		</g>
	</g>
	<g>
		<path style="opacity:0.44;fill:#B5B5B5;" d="M179.51,120.71c0.762,0.163,1.523,0.242,2.325,0.242c2.603,0,5.313-0.764,8.229-2.326
			c1.01,0.334,2.141,0.615,3.082,0.615c3.595,0,6.059-2.88,6.915-4.065c3.318-4.475,6.49-8.355,9.71-11.875
			c1.732-1.906,4.352-4.633,6.979-7.249c1.436,2.271,3.877,3.707,6.758,3.707c0.053,0,0.114-0.006,0.169-0.007
			c-1.672,3.417-2.551,6.065-2.551,8.17c0,5.493,4.129,10.594,9.42,12.442c-4.109,6.709-6.914,11.32-7.315,11.989
			c-1.273,2.193-1.816,4.308-1.816,7.072c0,0.089,0.002,0.178,0.007,0.268c0.283,5.273,5.252,8.771,8.415,8.771
			c2.909,0,4.561-2.15,5.077-2.821c0.451-0.577,1.27-1.877,4.892-7.681c3.04-4.875,7.26-11.639,11.615-18.434
			c0.346,0.192,0.71,0.359,1.085,0.509c-0.904,0.905-1.463,2.154-1.463,3.534v14.323c0,2.761,2.238,5,5,5h6.139
			c2.053,0,3.813-1.24,4.583-3.01c0.779,1.785,2.54,3.01,4.566,3.01h3.356c2.144,0,4.007-1.361,4.705-3.318
			c0.693,1.93,2.521,3.318,4.689,3.318h6.139c1.512,0,2.85-0.685,3.767-1.744c0.917,1.06,2.255,1.744,3.767,1.744h2.251
			c0.424,0,0.836-0.053,1.229-0.152c0.395,0.1,0.806,0.152,1.225,0.152h2.292c1.676,0,3.24-0.839,4.167-2.236
			c0.848-1.278,1.058-2.868,0.588-4.312c-0.001-0.061,0-0.125,0-0.192v-2.21c0-1.192-0.162-2.211-0.433-3.08
			c0.256-0.821,0.412-1.773,0.412-2.874v-1.125c0-4.662-2.805-7.792-7.235-8.235c0.622-0.888,0.956-1.953,0.914-3.052
			c-0.232-6.01,2.415-13.33,5.322-19.455l4.779,15.551c0.524,1.707,1.92,3.005,3.66,3.404c1.743,0.4,3.563-0.159,4.779-1.466
			c0.243-0.261,4.71-5.185,4.739-13.694l5.685,4.44c1.406,1.099,3.292,1.364,4.95,0.696c1.656-0.668,2.829-2.169,3.079-3.938
			c0.059-0.413,1.164-9.053-6.328-17.271l8.661-0.29c1.785-0.059,3.402-1.067,4.244-2.642c0.841-1.575,0.777-3.479-0.165-4.996
			c-0.253-0.405-6.325-9.941-21.045-9.434c-1.715,0.058-3.381,0.246-4.993,0.564c-0.081-1.641-0.302-3.304-0.662-4.982
			c-3.08-14.378-13.794-17.986-14.249-18.133c-1.702-0.548-3.563-0.147-4.887,1.05c-1.325,1.197-1.911,3.011-1.536,4.757
			l1.815,8.474c-9.785-5.277-17.901-2.113-18.289-1.958c-1.634,0.662-2.798,2.134-3.065,3.873c-1.379-1.366-3.002-1.636-4.067-1.636
			c-0.394,0-0.734,0.037-1.018,0.077c-0.235-0.017-0.479-0.03-0.74-0.03c-1.571,0-3.08,0.474-4.427,1.373
			c-1.185,0.766-2.227,1.44-17.909,26.534c3.1-5.7,3.1-6.379,3.1-7.416c0-1.319-0.443-2.732-1.193-4.034
			c6.05-1.021,11.123-7.676,11.123-13.024c0-1.436-0.343-2.743-0.953-3.859c0.647,0.306,1.362,0.49,2.125,0.49h2.251
			c2.762,0,5-2.239,5-5v-8.034c1.413-0.884,2.353-2.454,2.353-4.243v-2.046c0-2.761-2.238-5-5-5h-6.957
			c-1.728,0-3.251,0.877-4.149,2.209c-1.465-1.499-3.531-2.373-5.963-2.373c-2.594,0-4.766,1-6.242,2.688
			c-0.863-1.501-2.464-2.524-4.319-2.524h-6.139c-1.976,0-3.668,1.156-4.48,2.82c-1.451-1.793-3.729-2.82-6.573-2.82h-3.397
			c-2.762,0-5,2.239-5,5v14.323c0,2.761,2.238,5,5,5h3.54c2.745,0,4.993-1.009,6.475-2.736c0.828,1.617,2.493,2.736,4.435,2.736
			h6.139c1.841,0,3.432-1.006,4.3-2.488c0.5,0.562,1.078,1.044,1.725,1.438c-2.785,2.48-4.672,6.075-4.672,9.787
			c0,1.103,0.189,2.124,0.534,3.042c-2.284,0.407-4.776,1.703-7.555,3.956c-1.684-2.345-4.468-3.826-7.75-3.826
			c-3.186,0-6.252,0.984-9.149,2.555c-0.47-0.699-1.055-1.263-1.709-1.687c1.198-1.312,1.885-2.967,1.885-4.801
			c0-3.135-2.021-4.751-2.686-5.283c-0.003-0.002-0.006-0.005-0.009-0.007c-0.066-0.083-0.126-0.169-0.189-0.253
			c-0.561-0.759-1.606-2.17-3.519-2.968c-0.057-0.023-0.113-0.046-0.171-0.067c-0.069-0.026-0.141-0.051-0.213-0.076
			c0.779-1.488,0.941-2.258,0.941-3.225c0-2.763-2.03-5.704-5.145-6.208c-0.703-0.291-1.631-0.55-2.896-0.55
			c-0.859,0-1.585,0.14-2.065,0.233c-0.092,0.018-0.183,0.038-0.275,0.052c-2.904,0.031-4.33,1.334-5.417,2.766
			c-2.021,2.249-3.726,4.7-5.362,7.093c-0.287,0.013-0.819,0.036-1.794,0.077c-0.664,0.031-1.328,0.057-1.992,0.082
			c-1.418,0.055-2.836,0.111-4.254,0.21c-0.035,0.002-0.07,0.005-0.106,0.008c-2.312,0.21-8.192,2.637-9.978,6.474
			c-0.016,0.017-0.03,0.033-0.046,0.05c-0.643,0.71-1.982,2.187-1.982,4.49c0,3.998,3.336,6.965,8.052,7.297
			c-11.908,19.799-13.014,27.628-13.04,29.765C168.14,114.623,171.86,119.258,179.51,120.71z M188.281,100.206
			c3.442-7.003,10.165-18.775,13.913-24.86c0.567-0.044,1.122-0.092,1.67-0.143c-1.337,1.715-2.326,3.462-3.283,5.154
			c-0.366,0.646-0.732,1.294-1.129,1.951c-2.759,4.608-6.359,10.645-9.987,16.877C189.044,99.555,188.651,99.894,188.281,100.206z
			 M276.898,118.572h-2.067c-0.602,0-1.181,0.107-1.719,0.304c-0.538-0.197-1.117-0.304-1.719-0.304h-2.271
			c-1.302,0-2.545,0.511-3.473,1.408c-0.332-0.32-0.715-0.581-1.125-0.8c13.589-5.473,25.209-23.451,27.495-33.575l2.678,0.144
			c-4.272,5.595-9.852,14.408-15.66,27.729c-0.667,1.529-0.527,3.29,0.372,4.695c0.402,0.628,0.937,1.14,1.549,1.526
			c-0.161,0.13-0.323,0.258-0.467,0.408C279.551,119.132,278.258,118.572,276.898,118.572z M280.28,70.922
			c0.906-1.177,1.882-2.759,1.882-4.767c0-0.312-0.023-0.603-0.061-0.872l5.108,3.99c-2.732,0.689-4.938,1.745-6.647,2.818
			c-0.391,0.049-0.783,0.114-1.178,0.195L280.28,70.922z M260.666,46.013c0.013-0.019,0.023-0.042,0.036-0.061v0.149
			C260.689,46.073,260.679,46.041,260.666,46.013z M260.754,54.116c0.048,0.468,0.144,0.921,0.313,1.342
			c-0.253-0.158-0.518-0.298-0.793-0.427C260.452,54.742,260.61,54.434,260.754,54.116z"/>
		<path style="fill:#FFFFFF;" d="M175.591,115.193c0.762,0.163,1.523,0.242,2.325,0.242c2.602,0,5.313-0.764,8.229-2.326
			c1.01,0.333,2.141,0.615,3.082,0.615c3.595,0,6.06-2.88,6.915-4.065c3.318-4.475,6.49-8.355,9.71-11.874
			c1.732-1.906,4.352-4.633,6.979-7.25c1.436,2.271,3.877,3.708,6.758,3.708c0.053,0,0.114-0.006,0.169-0.007
			c-1.672,3.417-2.551,6.065-2.551,8.17c0,5.493,4.129,10.594,9.42,12.442c-4.109,6.709-6.914,11.32-7.315,11.989
			c-1.274,2.193-1.816,4.308-1.816,7.072c0,0.089,0.002,0.178,0.007,0.268c0.283,5.273,5.252,8.771,8.415,8.771
			c2.909,0,4.562-2.15,5.077-2.821c0.451-0.577,1.271-1.877,4.892-7.681c3.04-4.874,7.26-11.639,11.615-18.434
			c0.346,0.192,0.71,0.359,1.085,0.509c-0.904,0.905-1.463,2.154-1.463,3.534v14.323c0,2.761,2.238,5,5,5h6.139
			c2.053,0,3.813-1.24,4.583-3.01c0.779,1.785,2.54,3.01,4.566,3.01h3.356c2.144,0,4.007-1.361,4.705-3.318
			c0.693,1.93,2.521,3.318,4.689,3.318h6.139c1.512,0,2.85-0.685,3.767-1.744c0.917,1.06,2.255,1.744,3.767,1.744h2.251
			c0.424,0,0.836-0.053,1.23-0.152c0.395,0.1,0.806,0.152,1.226,0.152h2.292c1.676,0,3.24-0.839,4.167-2.236
			c0.848-1.278,1.058-2.868,0.588-4.312c-0.001-0.061,0-0.124,0-0.192v-2.21c0-1.192-0.162-2.211-0.433-3.08
			c0.256-0.821,0.412-1.773,0.412-2.875v-1.125c0-4.662-2.805-7.792-7.235-8.235c0.622-0.888,0.957-1.953,0.914-3.052
			c-0.231-6.01,2.415-13.33,5.322-19.455l4.779,15.551c0.524,1.707,1.92,3.005,3.66,3.404c1.743,0.4,3.563-0.159,4.779-1.466
			c0.243-0.261,4.71-5.185,4.739-13.694l5.685,4.441c1.406,1.099,3.292,1.364,4.95,0.696c1.656-0.668,2.829-2.169,3.079-3.938
			c0.059-0.414,1.164-9.053-6.328-17.271l8.661-0.29c1.785-0.06,3.402-1.067,4.244-2.642c0.841-1.575,0.777-3.479-0.165-4.996
			c-0.253-0.405-6.325-9.941-21.045-9.434c-1.715,0.058-3.381,0.246-4.993,0.564c-0.081-1.641-0.302-3.304-0.662-4.982
			c-3.08-14.378-13.794-17.986-14.249-18.133c-1.702-0.548-3.563-0.147-4.887,1.05c-1.325,1.197-1.911,3.011-1.536,4.757
			l1.815,8.474c-9.785-5.277-17.901-2.113-18.289-1.958c-1.634,0.662-2.798,2.134-3.065,3.873c-1.379-1.366-3.002-1.636-4.067-1.636
			c-0.394,0-0.734,0.037-1.018,0.077c-0.235-0.017-0.479-0.03-0.74-0.03c-1.571,0-3.08,0.474-4.427,1.373
			c-1.185,0.766-2.227,1.44-17.909,26.534c3.1-5.7,3.1-6.379,3.1-7.416c0-1.319-0.442-2.732-1.192-4.034
			c6.05-1.021,11.123-7.676,11.123-13.024c0-1.436-0.343-2.743-0.953-3.859c0.647,0.306,1.362,0.49,2.125,0.49h2.251
			c2.762,0,5-2.239,5-5v-8.034c1.413-0.884,2.354-2.454,2.354-4.243v-2.046c0-2.761-2.238-5-5-5h-6.957
			c-1.728,0-3.251,0.877-4.149,2.209c-1.465-1.499-3.531-2.373-5.963-2.373c-2.594,0-4.766,1-6.242,2.688
			c-0.863-1.501-2.464-2.524-4.319-2.524h-6.139c-1.976,0-3.668,1.156-4.48,2.82c-1.451-1.793-3.729-2.82-6.573-2.82h-3.397
			c-2.762,0-5,2.239-5,5v14.323c0,2.761,2.238,5,5,5h3.54c2.745,0,4.993-1.009,6.476-2.736c0.828,1.617,2.492,2.736,4.435,2.736
			h6.139c1.841,0,3.432-1.006,4.3-2.488c0.5,0.562,1.078,1.044,1.725,1.438c-2.785,2.48-4.672,6.075-4.672,9.787
			c0,1.103,0.189,2.124,0.534,3.042c-2.284,0.407-4.776,1.703-7.555,3.956c-1.684-2.345-4.468-3.826-7.75-3.826
			c-3.186,0-6.252,0.984-9.148,2.555c-0.47-0.699-1.055-1.263-1.709-1.687c1.198-1.312,1.885-2.967,1.885-4.801
			c0-3.135-2.021-4.751-2.686-5.283c-0.003-0.002-0.006-0.005-0.009-0.007c-0.066-0.082-0.126-0.169-0.188-0.253
			c-0.562-0.759-1.606-2.17-3.52-2.968c-0.057-0.023-0.113-0.046-0.171-0.067c-0.069-0.026-0.141-0.051-0.213-0.076
			c0.779-1.488,0.941-2.258,0.941-3.225c0-2.763-2.03-5.704-5.145-6.208c-0.703-0.291-1.631-0.55-2.896-0.55
			c-0.859,0-1.585,0.14-2.065,0.233c-0.092,0.018-0.183,0.038-0.275,0.052c-2.904,0.031-4.33,1.334-5.417,2.766
			c-2.02,2.249-3.726,4.7-5.362,7.093c-0.287,0.013-0.819,0.036-1.794,0.077c-0.664,0.031-1.328,0.057-1.992,0.082
			c-1.418,0.055-2.836,0.111-4.254,0.21c-0.035,0.002-0.07,0.005-0.105,0.008c-2.312,0.21-8.192,2.637-9.978,6.474
			c-0.016,0.017-0.03,0.033-0.046,0.05c-0.644,0.71-1.982,2.187-1.982,4.49c0,3.999,3.336,6.965,8.052,7.297
			c-11.908,19.799-13.014,27.628-13.04,29.765C164.221,109.106,167.941,113.741,175.591,115.193z M184.363,94.689
			c3.442-7.003,10.165-18.775,13.913-24.86c0.567-0.044,1.122-0.092,1.67-0.143c-1.337,1.715-2.326,3.462-3.283,5.154
			c-0.366,0.646-0.732,1.295-1.129,1.951c-2.759,4.608-6.359,10.645-9.987,16.878C185.126,94.038,184.732,94.377,184.363,94.689z
			 M272.979,113.055h-2.067c-0.602,0-1.181,0.107-1.719,0.304c-0.538-0.197-1.117-0.304-1.719-0.304h-2.272
			c-1.302,0-2.545,0.511-3.473,1.408c-0.332-0.32-0.715-0.581-1.125-0.8c13.589-5.473,25.209-23.451,27.495-33.575l2.678,0.144
			c-4.273,5.595-9.852,14.408-15.66,27.729c-0.667,1.529-0.527,3.29,0.372,4.695c0.402,0.628,0.937,1.14,1.549,1.526
			c-0.161,0.13-0.324,0.258-0.468,0.408C275.632,113.615,274.34,113.055,272.979,113.055z M276.362,65.405
			c0.906-1.177,1.882-2.759,1.882-4.767c0-0.312-0.023-0.603-0.062-0.872l5.108,3.99c-2.731,0.689-4.938,1.745-6.646,2.818
			c-0.391,0.049-0.783,0.114-1.178,0.195L276.362,65.405z M256.748,40.496c0.014-0.02,0.023-0.042,0.036-0.061v0.149
			C256.771,40.556,256.761,40.523,256.748,40.496z M256.835,48.599c0.048,0.468,0.144,0.921,0.313,1.342
			c-0.253-0.158-0.518-0.298-0.793-0.427C256.534,49.224,256.691,48.917,256.835,48.599z"/>
		<g>
			
				<text transform="matrix(1 0 0 1 217.3515 48.0881)" style="fill:#FF8155; font-family:'BebasNeueBold'; font-size:20.4671px; letter-spacing:6;">best</text>
			
				<text transform="matrix(1 0 0 1 251.3061 132.3781)" style="fill:#FF8155; font-family:'BebasNeueBold'; font-size:20.4671px; letter-spacing:6;">ever</text>
			<g>
				<text transform="matrix(1 0 0 1 166.8451 108.6291)" style="fill:#50B4BE; font-family:'Yellowtail'; font-size:97.3266px;">trip</text>
			</g>
			<g>
				<g>
					<path style="fill:#1E404C;" d="M304.749,74.172l26.541,20.731c0,0,1.23-8.722-8.215-16.099
						C313.631,71.427,304.749,74.172,304.749,74.172z"/>
					<path style="fill:#1E404C;" d="M304.749,74.171l33.659-1.128c0,0-4.653-7.479-16.63-7.078
						C309.8,66.366,304.749,74.171,304.749,74.171z"/>
					<path style="fill:#1E404C;" d="M304.746,74.163l9.382,30.527c0,0,5.691-6.114,2.353-16.977S304.746,74.163,304.746,74.163z"/>
				</g>
				<g>
					<path style="fill:#1E404C;" d="M307.225,76.106l-26.541-20.731c0,0,8.165-3.306,17.609,4.072
						C307.738,66.824,307.225,76.106,307.225,76.106z"/>
					<path style="fill:#1E404C;" d="M307.227,76.106l-7.056-32.93c0,0,8.383,2.703,10.894,14.421
						C313.576,69.316,307.227,76.106,307.227,76.106z"/>
					<path style="fill:#1E404C;" d="M307.235,76.107l-31.891-1.711c0,0,4.554-7.003,15.902-6.394
						C302.595,68.611,307.235,76.107,307.235,76.107z"/>
				</g>
			</g>
			<path style="fill:#1E404C;" d="M308.506,73.729c0,0-14.848,21.084-14.254,36.526l-14.551-0.297
				C279.701,109.958,296.924,70.462,308.506,73.729z"/>
		</g>
	</g>
</g>
<g id="DESIGNED_BY_FREEPIK">
	<g>
		<g id="XMLID_2_">
			<g id="XMLID_1043_">
				<path id="XMLID_1051_" style="fill:#1C252C;" d="M260.104,465.465c-0.432,0.443-0.803,0.931-1.108,1.453l-0.465-0.241
					c-0.067-0.298-0.349-0.503-0.659-0.466c-0.331,0.039-0.568,0.339-0.529,0.67c0.039,0.331,0.339,0.568,0.67,0.529
					c0.066-0.008,0.127-0.026,0.184-0.052l0.451,0.234c-0.251,0.554-0.433,1.139-0.539,1.744l0.747,0.132
					c0.23-1.306,0.85-2.507,1.792-3.473L260.104,465.465z"/>
				<path id="XMLID_1050_" style="fill:#1C252C;" d="M265.592,463.163c-0.171,0-0.341,0.006-0.51,0.017l-0.074-0.626
					c0.188-0.149,0.296-0.389,0.266-0.645c-0.046-0.393-0.402-0.674-0.795-0.628c-0.393,0.046-0.674,0.402-0.628,0.795
					c0.03,0.254,0.189,0.461,0.404,0.564l0.074,0.624c-0.714,0.116-1.403,0.332-2.06,0.646l0.327,0.684
					c0.934-0.447,1.942-0.673,2.995-0.673c0.496,0,0.993,0.053,1.475,0.158l0.161-0.741
					C266.692,463.222,266.142,463.163,265.592,463.163z"/>
				<path id="XMLID_1049_" style="fill:#1C252C;" d="M272.194,465.711c0.331-0.04,0.566-0.341,0.526-0.672
					c-0.04-0.331-0.341-0.566-0.672-0.526c-0.309,0.038-0.535,0.304-0.53,0.609l-0.416,0.363c-0.418-0.43-0.889-0.813-1.408-1.139
					l-0.404,0.641c1.134,0.715,2.021,1.726,2.563,2.925l0.69-0.313c-0.251-0.554-0.567-1.072-0.942-1.545l0.402-0.351
					C272.065,465.716,272.129,465.719,272.194,465.711z"/>
				<path id="XMLID_1048_" style="fill:#1C252C;" d="M265.044,473.372c-0.386,0.023-0.775,0.035-1.157,0.035
					c-0.88,0-1.733-0.061-2.478-0.179c-0.39-0.062-0.846-0.155-1.27-0.292c1.046,1.861,3.069,3.125,5.388,3.125
					c2.855,0,5.262-1.916,5.95-4.504c-0.682,0.449-1.505,0.825-2.459,1.123C267.839,473.047,266.463,473.286,265.044,473.372z"/>
				<path id="XMLID_1044_" style="fill:#1C252C;" d="M265.592,464.68c-3.352,0-6.08,2.666-6.08,5.943
					c0,0.426,0.046,0.849,0.137,1.261c0.673,0.483,2.706,0.89,5.348,0.731c2.879-0.173,5.297-0.957,6.672-2.159
					c-0.006-0.195-0.021-0.39-0.045-0.582C271.244,466.913,268.65,464.68,265.592,464.68z M263.432,471.194
					c-1.02,0-1.85-0.83-1.85-1.85c0-1.02,0.83-1.85,1.85-1.85c1.02,0,1.85,0.83,1.85,1.85
					C265.282,470.365,264.452,471.194,263.432,471.194z M268.17,470.286c-0.75,0-1.36-0.61-1.36-1.36s0.61-1.361,1.36-1.361
					c0.75,0,1.361,0.61,1.361,1.361S268.92,470.286,268.17,470.286z"/>
			</g>
			<path id="XMLID_1041_" style="fill:#1C252C;" d="M281.595,466.547c-0.295-0.116-0.805-0.309-1.382-0.237
				c-0.551,0.069-0.844,0.341-0.844,1.007v0.866h2.228v1.717h-2.228v5.455h-1.932v-5.455h-1.34v-1.717h1.34v-0.888
				c0-1.68,0.896-2.783,2.568-2.783c0.643,0,1.157,0.122,1.59,0.308L281.595,466.547z"/>
			<path id="XMLID_1039_" style="fill:#1C252C;" d="M286.298,469.879c-0.177-0.03-0.358-0.046-0.526-0.046
				c-0.896,0-1.51,0.548-1.51,1.614v3.908h-1.932v-7.172h1.873v0.785c0.451-0.673,1.14-0.977,2.021-0.977
				c0.414,0,0.848,0.128,1.094,0.337L286.298,469.879z"/>
			<path id="XMLID_88_" style="fill:#1C252C;" d="M293.965,471.757c0,0.222-0.015,0.489-0.037,0.651h-5.085
				c0.207,1.036,0.933,1.488,1.843,1.488c0.622,0,1.295-0.252,1.813-0.688l1.133,1.243c-0.814,0.748-1.85,1.088-3.057,1.088
				c-2.198,0-3.723-1.495-3.723-3.753c0-2.258,1.48-3.797,3.627-3.797C292.544,467.99,293.958,469.522,293.965,471.757z
				 M288.851,471.091h3.175c-0.177-0.918-0.733-1.436-1.562-1.436C289.554,469.655,289.021,470.203,288.851,471.091z"/>
			<path id="XMLID_85_" style="fill:#1C252C;" d="M301.618,471.757c0,0.222-0.015,0.489-0.037,0.651h-5.085
				c0.207,1.036,0.933,1.488,1.843,1.488c0.622,0,1.295-0.252,1.814-0.688l1.132,1.243c-0.814,0.748-1.85,1.088-3.057,1.088
				c-2.198,0-3.723-1.495-3.723-3.753c0-2.258,1.48-3.797,3.627-3.797C300.197,467.99,301.611,469.522,301.618,471.757z
				 M296.504,471.091h3.175c-0.178-0.918-0.733-1.436-1.562-1.436C297.207,469.655,296.674,470.203,296.504,471.091z"/>
			<path id="XMLID_62_" style="fill:#1C252C;" d="M309.964,471.764c0,2.154-1.495,3.775-3.471,3.775
				c-0.962,0-1.643-0.378-2.109-0.933v3.708h-1.924v-10.133h1.887v0.792c0.466-0.585,1.155-0.984,2.139-0.984
				C308.469,467.99,309.964,469.61,309.964,471.764z M304.287,471.764c0,1.132,0.748,1.976,1.843,1.976
				c1.14,0,1.85-0.881,1.85-1.976c0-1.095-0.71-1.976-1.85-1.976C305.035,469.788,304.287,470.632,304.287,471.764z"/>
			<path id="XMLID_9_" style="fill:#1C252C;" d="M313.068,465.836c0,0.696-0.54,1.229-1.236,1.229c-0.696,0-1.229-0.533-1.229-1.229
				c0-0.696,0.533-1.243,1.229-1.243C312.527,464.592,313.068,465.14,313.068,465.836z M312.809,475.354h-1.932v-7.172h1.932
				V475.354z"/>
			<path id="XMLID_3_" style="fill:#1C252C;" d="M316.032,470.736l2.701-2.554h2.368l-3.479,3.375l3.501,3.797h-2.376l-2.716-2.901
				v2.901H314.1v-10.658h1.932V470.736z"/>
		</g>
		<g>
			<path style="fill:#1C252C;" d="M184.412,475.289v-1.055c-0.527,0.718-1.391,1.23-2.387,1.23c-1.846,0-3.149-1.406-3.149-3.706
				c0-2.256,1.289-3.721,3.149-3.721c0.952,0,1.816,0.469,2.387,1.245v-3.765h1.099v9.77H184.412z M184.412,473.37v-3.208
				c-0.395-0.615-1.245-1.143-2.124-1.143c-1.421,0-2.27,1.172-2.27,2.739c0,1.567,0.85,2.724,2.27,2.724
				C183.168,474.483,184.017,473.986,184.412,473.37z"/>
			<path style="fill:#1C252C;" d="M186.932,471.744c0-2.051,1.465-3.706,3.486-3.706c2.139,0,3.398,1.67,3.398,3.794v0.279h-5.727
				c0.088,1.333,1.025,2.446,2.549,2.446c0.805,0,1.626-0.322,2.182-0.894l0.527,0.718c-0.703,0.703-1.655,1.084-2.812,1.084
				C188.44,475.465,186.932,473.956,186.932,471.744z M190.403,468.947c-1.509,0-2.256,1.274-2.314,2.358h4.643
				C192.718,470.25,192.015,468.947,190.403,468.947z"/>
			<path style="fill:#1C252C;" d="M194.607,474.351l0.571-0.791c0.469,0.542,1.362,1.011,2.329,1.011c1.084,0,1.67-0.513,1.67-1.216
				c0-1.714-4.38-0.659-4.38-3.281c0-1.098,0.952-2.036,2.636-2.036c1.201,0,2.051,0.454,2.622,1.026l-0.513,0.762
				c-0.424-0.513-1.201-0.894-2.109-0.894c-0.967,0-1.567,0.483-1.567,1.113c0,1.552,4.38,0.527,4.38,3.281
				c0,1.187-0.952,2.138-2.783,2.138C196.306,475.465,195.325,475.113,194.607,474.351z"/>
			<path style="fill:#1C252C;" d="M201.477,466.471c0-0.41,0.337-0.747,0.732-0.747c0.41,0,0.747,0.337,0.747,0.747
				c0,0.41-0.337,0.732-0.747,0.732C201.814,467.203,201.477,466.881,201.477,466.471z M201.667,475.289v-7.075h1.099v7.075H201.667
				z"/>
			<path style="fill:#1C252C;" d="M204.582,477.105l0.556-0.82c0.586,0.703,1.289,0.967,2.3,0.967c1.172,0,2.27-0.571,2.27-2.124
				v-1.011c-0.513,0.718-1.377,1.26-2.373,1.26c-1.845,0-3.149-1.377-3.149-3.662c0-2.27,1.289-3.677,3.149-3.677
				c0.952,0,1.802,0.469,2.373,1.245v-1.069h1.098v6.87c0,2.344-1.641,3.076-3.369,3.076
				C206.237,478.16,205.417,477.926,204.582,477.105z M209.709,473.253v-3.091c-0.381-0.615-1.23-1.143-2.109-1.143
				c-1.421,0-2.27,1.128-2.27,2.695c0,1.553,0.849,2.695,2.27,2.695C208.478,474.41,209.328,473.868,209.709,473.253z"/>
			<path style="fill:#1C252C;" d="M217.413,475.289v-4.629c0-1.245-0.63-1.641-1.582-1.641c-0.865,0-1.685,0.527-2.095,1.099v5.17
				h-1.099v-7.075h1.099v1.025c0.498-0.586,1.464-1.201,2.519-1.201c1.48,0,2.256,0.747,2.256,2.285v4.966H217.413z"/>
			<path style="fill:#1C252C;" d="M219.932,471.744c0-2.051,1.465-3.706,3.486-3.706c2.139,0,3.398,1.67,3.398,3.794v0.279h-5.727
				c0.088,1.333,1.025,2.446,2.549,2.446c0.806,0,1.626-0.322,2.183-0.894l0.527,0.718c-0.703,0.703-1.655,1.084-2.812,1.084
				C221.441,475.465,219.932,473.956,219.932,471.744z M223.404,468.947c-1.509,0-2.256,1.274-2.314,2.358h4.643
				C225.718,470.25,225.015,468.947,223.404,468.947z"/>
			<path style="fill:#1C252C;" d="M233.35,475.289v-1.055c-0.527,0.718-1.392,1.23-2.388,1.23c-1.846,0-3.149-1.406-3.149-3.706
				c0-2.256,1.289-3.721,3.149-3.721c0.952,0,1.817,0.469,2.388,1.245v-3.765h1.098v9.77H233.35z M233.35,473.37v-3.208
				c-0.396-0.615-1.245-1.143-2.124-1.143c-1.421,0-2.27,1.172-2.27,2.739c0,1.567,0.849,2.724,2.27,2.724
				C232.105,474.483,232.954,473.986,233.35,473.37z"/>
			<path style="fill:#1C252C;" d="M239.692,475.289v-9.77h1.098v3.765c0.572-0.776,1.421-1.245,2.388-1.245
				c1.845,0,3.149,1.465,3.149,3.721c0,2.299-1.304,3.706-3.149,3.706c-0.996,0-1.86-0.513-2.388-1.23v1.055H239.692z
				 M242.9,474.483c1.436,0,2.285-1.157,2.285-2.724c0-1.568-0.85-2.739-2.285-2.739c-0.864,0-1.728,0.527-2.109,1.143v3.208
				C241.171,473.986,242.036,474.483,242.9,474.483z"/>
			<path style="fill:#1C252C;" d="M247.528,477.061c0.161,0.073,0.425,0.117,0.601,0.117c0.483,0,0.805-0.161,1.055-0.747
				l0.469-1.069l-2.959-7.148h1.187l2.358,5.8l2.344-5.8h1.201l-3.545,8.51c-0.425,1.025-1.143,1.421-2.08,1.435
				c-0.234,0-0.601-0.044-0.805-0.103L247.528,477.061z"/>
		</g>
	</g>
</g>
</svg>
